<svg width="147" height="37" viewBox="0 0 147 37" fill="none" xmlns="http://www.w3.org/2000/svg">
<path d="M9.27525 25.192C10.5712 25.192 11.5792 24.968 12.2992 24.52C13.0352 24.072 13.4032 23.488 13.4032 22.768C13.4032 22.432 13.3152 22.168 13.1392 21.976C12.9632 21.768 12.6512 21.664 12.2032 21.664H8.07525V17.08C8.07525 16.456 8.17125 15.888 8.36325 15.376C8.55525 14.848 8.82725 14.4 9.17925 14.032C9.54725 13.648 9.98725 13.352 10.4992 13.144C11.0112 12.936 11.5872 12.832 12.2272 12.832H14.9872L15.1072 15.472H12.1792C11.7152 15.472 11.3232 15.616 11.0032 15.904C10.6832 16.176 10.5232 16.592 10.5232 17.152V19.048H12.6352C13.2592 19.048 13.7712 19.128 14.1712 19.288C14.5872 19.448 14.9152 19.672 15.1552 19.96C15.3952 20.248 15.5632 20.592 15.6592 20.992C15.7712 21.392 15.8272 21.84 15.8272 22.336C15.8272 23.104 15.6672 23.824 15.3472 24.496C15.0432 25.168 14.6112 25.744 14.0512 26.224C13.4912 26.72 12.8272 27.104 12.0592 27.376C11.3072 27.664 10.4912 27.808 9.61125 27.808H7.52325C5.73125 27.808 4.33925 27.256 3.34725 26.152C2.35525 25.048 1.85925 23.536 1.85925 21.616V17.32H4.28325V21.52C4.28325 22.08 4.34725 22.584 4.47525 23.032C4.60325 23.48 4.80325 23.864 5.07525 24.184C5.36325 24.504 5.73125 24.752 6.17925 24.928C6.64325 25.104 7.20325 25.192 7.85925 25.192H9.27525ZM16.8253 25.192H17.1853C17.8573 25.192 18.4333 25.088 18.9133 24.88C19.3933 24.688 19.7773 24.424 20.0653 24.088C20.3693 23.752 20.5933 23.368 20.7373 22.936C20.8813 22.504 20.9533 22.064 20.9533 21.616V14.968H23.4013V21.616C23.4013 22.48 23.2493 23.288 22.9453 24.04C22.6573 24.792 22.2493 25.448 21.7213 26.008C21.2093 26.568 20.5933 27.008 19.8733 27.328C19.1693 27.648 18.4093 27.808 17.5933 27.808H16.9693L16.8253 25.192ZM23.1373 12.16H20.4253V9.712H23.1373V12.16ZM26.9104 7.12H29.3584V22H26.9104V7.12ZM37.4816 19.36C38.0416 19.36 38.4256 19.248 38.6336 19.024C38.8416 18.8 38.9456 18.576 38.9456 18.352C38.9456 18.224 38.9216 18.064 38.8736 17.872C38.8256 17.664 38.7296 17.336 38.5856 16.888C38.4416 16.424 38.2256 15.792 37.9376 14.992C37.6656 14.192 37.2896 13.144 36.8096 11.848L39.1376 10.864L41.6096 17.776C41.8016 18.336 42.0256 18.744 42.2816 19C42.5536 19.24 42.9696 19.36 43.5296 19.36H43.8416C44.1936 19.36 44.3696 19.784 44.3696 20.632C44.3696 21.544 44.1936 22 43.8416 22H43.5296C43.0016 22 42.4896 21.904 41.9936 21.712C41.5136 21.52 41.0736 21.112 40.6736 20.488C40.3376 21.064 39.9136 21.464 39.4016 21.688C38.9056 21.896 38.3616 22 37.7696 22H32.6096L32.4896 19.36H37.4816ZM46.7646 19.36C47.8366 19.36 48.3726 18.84 48.3726 17.8V14.968H50.8206V17.968C50.8206 19.296 50.4846 20.304 49.8126 20.992C49.1406 21.664 48.1966 22 46.9806 22H44.5566C44.3486 22 44.2126 21.896 44.1486 21.688C44.0686 21.464 44.0286 21.144 44.0286 20.728C44.0286 20.264 44.0686 19.92 44.1486 19.696C44.2126 19.472 44.3486 19.36 44.5566 19.36H46.7646ZM50.0766 12.16H47.3646V9.712H50.0766V12.16ZM54.3594 7.12H56.8074V22H54.3594V7.12ZM64.2742 18.304C64.2742 17.84 64.3302 17.4 64.4422 16.984C64.5702 16.568 64.7462 16.152 64.9702 15.736C65.2102 15.32 65.5062 14.904 65.8582 14.488C66.2102 14.056 66.6182 13.592 67.0822 13.096L65.9782 11.992L67.6342 10.216C68.6262 11.192 69.4502 12.04 70.1062 12.76C70.7782 13.48 71.3142 14.136 71.7142 14.728C72.1142 15.304 72.3942 15.848 72.5542 16.36C72.7302 16.872 72.8182 17.4 72.8182 17.944C72.8182 18.536 72.7062 19.08 72.4822 19.576C72.2582 20.072 71.9542 20.504 71.5702 20.872C71.1862 21.224 70.7222 21.504 70.1782 21.712C69.6502 21.904 69.0742 22 68.4502 22C67.8262 22 67.2582 21.912 66.7462 21.736C66.2342 21.56 65.7942 21.312 65.4262 20.992C65.0582 20.656 64.7702 20.264 64.5622 19.816C64.3702 19.368 64.2742 18.864 64.2742 18.304ZM70.3702 17.752C70.3702 17.56 70.3462 17.376 70.2982 17.2C70.2502 17.008 70.1622 16.8 70.0342 16.576C69.9062 16.352 69.7142 16.104 69.4582 15.832C69.2182 15.544 68.9062 15.208 68.5222 14.824C68.1222 15.208 67.8022 15.552 67.5622 15.856C67.3222 16.144 67.1382 16.408 67.0102 16.648C66.8822 16.872 66.7942 17.08 66.7462 17.272C66.7142 17.448 66.6982 17.624 66.6982 17.8C66.6982 18.216 66.8502 18.584 67.1542 18.904C67.4582 19.208 67.9142 19.36 68.5222 19.36C69.1142 19.36 69.5702 19.2 69.8902 18.88C70.2102 18.56 70.3702 18.184 70.3702 17.752ZM76.2069 7.12H78.6549V22H76.2069V7.12ZM85.4822 21.616C85.4822 22.48 85.3302 23.288 85.0262 24.04C84.7382 24.792 84.3302 25.448 83.8022 26.008C83.2902 26.568 82.6742 27.008 81.9542 27.328C81.2502 27.648 80.4902 27.808 79.6742 27.808H78.1622L78.0422 25.192H79.0502C79.7702 25.192 80.3862 25.088 80.8982 24.88C81.3942 24.688 81.8022 24.424 82.1222 24.088C82.4422 23.752 82.6742 23.368 82.8182 22.936C82.9622 22.504 83.0342 22.064 83.0342 21.616V14.968H85.4822V21.616ZM105.83 21.4C105.83 22.312 105.686 23.152 105.398 23.92C105.126 24.704 104.726 25.384 104.198 25.96C103.686 26.536 103.054 26.984 102.302 27.304C101.566 27.64 100.742 27.808 99.8302 27.808H98.3182C96.5262 27.808 95.1342 27.256 94.1422 26.152C93.1502 25.048 92.6542 23.536 92.6542 21.616V17.32H95.0782V21.52C95.0782 22.08 95.1422 22.584 95.2702 23.032C95.3982 23.48 95.5982 23.864 95.8702 24.184C96.1582 24.504 96.5262 24.752 96.9742 24.928C97.4382 25.104 97.9982 25.192 98.6542 25.192H99.7102C100.382 25.192 100.95 25.088 101.414 24.88C101.894 24.688 102.278 24.416 102.566 24.064C102.87 23.728 103.086 23.328 103.214 22.864C103.342 22.416 103.406 21.936 103.406 21.424V7.12H105.83V21.4ZM112.962 22C112.514 22 112.082 21.944 111.666 21.832C111.266 21.704 110.914 21.496 110.61 21.208C110.306 20.92 110.066 20.544 109.89 20.08C109.714 19.6 109.626 19.008 109.626 18.304V7.12H112.074V17.704C112.074 18.216 112.186 18.624 112.41 18.928C112.65 19.216 113.002 19.36 113.466 19.36H114.018C114.37 19.36 114.546 19.784 114.546 20.632C114.546 21.544 114.37 22 114.018 22H112.962ZM121.628 20.656C121.196 20.912 120.772 21.128 120.356 21.304C119.94 21.464 119.5 21.6 119.036 21.712C118.572 21.808 118.06 21.88 117.5 21.928C116.956 21.976 116.324 22 115.604 22H114.74C114.532 22 114.396 21.896 114.332 21.688C114.252 21.464 114.212 21.144 114.212 20.728C114.212 20.264 114.252 19.92 114.332 19.696C114.396 19.472 114.532 19.36 114.74 19.36H115.7C116.292 19.36 116.828 19.352 117.308 19.336C117.788 19.304 118.22 19.256 118.604 19.192C119.004 19.128 119.38 19.04 119.732 18.928C120.084 18.8 120.436 18.632 120.788 18.424L123.836 16.672C123.724 16.464 123.612 16.28 123.5 16.12C123.404 15.96 123.276 15.832 123.116 15.736C122.972 15.624 122.788 15.544 122.564 15.496C122.34 15.432 122.052 15.4 121.7 15.4H116.612L116.756 12.76H122.084C122.532 12.76 122.972 12.824 123.404 12.952C123.852 13.08 124.268 13.328 124.652 13.696C125.052 14.048 125.412 14.552 125.732 15.208C126.068 15.848 126.348 16.696 126.572 17.752L121.628 20.656ZM132.887 21.616C132.887 22.48 132.735 23.288 132.431 24.04C132.143 24.792 131.735 25.448 131.207 26.008C130.695 26.568 130.079 27.008 129.359 27.328C128.655 27.648 127.895 27.808 127.079 27.808H125.567L125.447 25.192H126.455C127.175 25.192 127.791 25.088 128.303 24.88C128.799 24.688 129.207 24.424 129.527 24.088C129.847 23.752 130.079 23.368 130.223 22.936C130.367 22.504 130.439 22.064 130.439 21.616V14.968H132.887V21.616ZM144.627 16C145.059 16.496 145.371 16.992 145.563 17.488C145.771 17.968 145.875 18.44 145.875 18.904C145.875 19.336 145.795 19.744 145.635 20.128C145.491 20.496 145.267 20.824 144.963 21.112C144.659 21.384 144.275 21.6 143.811 21.76C143.363 21.92 142.843 22 142.251 22H135.843L135.723 19.36H141.843C142.627 19.36 143.019 19.064 143.019 18.472C143.019 18.184 142.883 17.888 142.611 17.584L138.531 12.928L140.427 11.152L144.627 16Z" fill="#28293D"/>
</svg>
