<svg width="147" height="37" viewBox="0 0 147 37" fill="none" xmlns="http://www.w3.org/2000/svg">
<path d="M18.6618 25.192C19.9578 25.192 20.9658 24.968 21.6858 24.52C22.4218 24.072 22.7898 23.488 22.7898 22.768C22.7898 22.432 22.7018 22.168 22.5258 21.976C22.3498 21.768 22.0378 21.664 21.5898 21.664H17.4618V17.08C17.4618 16.456 17.5578 15.888 17.7498 15.376C17.9418 14.848 18.2138 14.4 18.5658 14.032C18.9338 13.648 19.3738 13.352 19.8858 13.144C20.3978 12.936 20.9738 12.832 21.6138 12.832H24.3738L24.4938 15.472H21.5658C21.1018 15.472 20.7098 15.616 20.3898 15.904C20.0698 16.176 19.9098 16.592 19.9098 17.152V19.048H22.0218C22.6458 19.048 23.1578 19.128 23.5578 19.288C23.9738 19.448 24.3018 19.672 24.5418 19.96C24.7818 20.248 24.9498 20.592 25.0458 20.992C25.1578 21.392 25.2138 21.84 25.2138 22.336C25.2138 23.104 25.0538 23.824 24.7338 24.496C24.4298 25.168 23.9978 25.744 23.4378 26.224C22.8778 26.72 22.2138 27.104 21.4458 27.376C20.6938 27.664 19.8778 27.808 18.9978 27.808H16.9098C15.1178 27.808 13.7258 27.256 12.7338 26.152C11.7418 25.048 11.2458 23.536 11.2458 21.616V17.32H13.6698V21.52C13.6698 22.08 13.7338 22.584 13.8618 23.032C13.9898 23.48 14.1898 23.864 14.4618 24.184C14.7498 24.504 15.1178 24.752 15.5658 24.928C16.0298 25.104 16.5898 25.192 17.2458 25.192H18.6618ZM32.7879 17.824C32.7879 18.336 32.9479 18.72 33.2679 18.976C33.5879 19.232 33.9879 19.36 34.4679 19.36H34.7319C35.0839 19.36 35.2599 19.784 35.2599 20.632C35.2599 21.544 35.0839 22 34.7319 22H34.4679C34.1479 22 33.8199 21.952 33.4839 21.856C33.1639 21.744 32.8919 21.528 32.6679 21.208V21.616C32.6679 22.48 32.5239 23.288 32.2359 24.04C31.9479 24.792 31.5479 25.448 31.0359 26.008C30.5399 26.568 29.9399 27.008 29.2359 27.328C28.5479 27.648 27.7959 27.808 26.9799 27.808H26.3799L26.1879 25.192H26.5719C27.2439 25.192 27.8199 25.088 28.2999 24.88C28.7799 24.688 29.1639 24.424 29.4519 24.088C29.7559 23.752 29.9799 23.368 30.1239 22.936C30.2679 22.504 30.3399 22.064 30.3399 21.616V14.968H32.7879V17.824ZM37.1206 19.36C38.1926 19.36 38.7286 18.84 38.7286 17.8V14.968H41.2006V17.8C41.2006 18.36 41.3686 18.76 41.7046 19C42.0566 19.24 42.4646 19.36 42.9286 19.36H43.5526C43.9206 19.36 44.1046 19.784 44.1046 20.632C44.1046 21.544 43.9206 22 43.5526 22H42.8566C42.2486 22 41.6966 21.904 41.2006 21.712C40.7046 21.504 40.2726 21.096 39.9046 20.488C39.5046 21.096 39.0726 21.504 38.6086 21.712C38.1446 21.904 37.6486 22 37.1206 22H35.4406C35.2326 22 35.0966 21.896 35.0326 21.688C34.9526 21.464 34.9126 21.144 34.9126 20.728C34.9126 20.264 34.9526 19.92 35.0326 19.696C35.0966 19.472 35.2326 19.36 35.4406 19.36H37.1206ZM42.4486 27.04H39.9766V24.688H42.4486V27.04ZM38.9926 27.04H36.5206V24.688H38.9926V27.04ZM46.022 6.016L53.246 3.28L53.63 5.008L46.142 7.888L46.022 6.016ZM50.222 19.36C50.654 19.36 50.95 19.272 51.11 19.096C51.286 18.92 51.374 18.704 51.374 18.448C51.374 18.208 51.326 17.976 51.23 17.752C51.15 17.512 50.966 17.256 50.678 16.984L46.142 12.448V9.712L54.086 6.712L54.638 9.16L48.518 11.416L52.046 14.992C52.446 15.392 52.774 15.76 53.03 16.096C53.286 16.416 53.486 16.728 53.63 17.032C53.774 17.32 53.87 17.616 53.918 17.92C53.982 18.208 54.014 18.512 54.014 18.832C54.014 19.392 53.918 19.872 53.726 20.272C53.55 20.672 53.302 21 52.982 21.256C52.678 21.512 52.31 21.704 51.878 21.832C51.462 21.944 51.006 22 50.51 22H44.27C44.062 22 43.926 21.896 43.862 21.688C43.782 21.464 43.742 21.144 43.742 20.728C43.742 20.264 43.782 19.92 43.862 19.696C43.926 19.472 44.062 19.36 44.27 19.36H50.222ZM60.5656 21.616C60.5656 22.48 60.4136 23.288 60.1096 24.04C59.8216 24.792 59.4136 25.448 58.8856 26.008C58.3736 26.568 57.7576 27.008 57.0376 27.328C56.3336 27.648 55.5736 27.808 54.7576 27.808H53.2456L53.1256 25.192H54.1336C54.8536 25.192 55.4696 25.088 55.9816 24.88C56.4776 24.688 56.8856 24.424 57.2056 24.088C57.5256 23.752 57.7576 23.368 57.9016 22.936C58.0456 22.504 58.1176 22.064 58.1176 21.616V14.968H60.5656V21.616ZM67.4101 22C66.9621 22 66.5301 21.944 66.1141 21.832C65.7141 21.704 65.3621 21.496 65.0581 21.208C64.7541 20.92 64.5141 20.544 64.3381 20.08C64.1621 19.6 64.0741 19.008 64.0741 18.304V7.12H66.5221V17.704C66.5221 18.216 66.6341 18.624 66.8581 18.928C67.0981 19.216 67.4501 19.36 67.9141 19.36H68.4661C68.8181 19.36 68.9941 19.784 68.9941 20.632C68.9941 21.544 68.8181 22 68.4661 22H67.4101ZM71.3958 19.36C72.4678 19.36 73.0038 18.84 73.0038 17.8V14.968H75.4518V17.968C75.4518 19.296 75.1158 20.304 74.4438 20.992C73.7718 21.664 72.8278 22 71.6118 22H69.1878C68.9798 22 68.8438 21.896 68.7798 21.688C68.6998 21.464 68.6598 21.144 68.6598 20.728C68.6598 20.264 68.6998 19.92 68.7798 19.696C68.8438 19.472 68.9798 19.36 69.1878 19.36H71.3958ZM72.6438 27.136H69.9318V24.688H72.6438V27.136ZM95.8303 21.4C95.8303 22.312 95.6863 23.152 95.3983 23.92C95.1263 24.704 94.7263 25.384 94.1983 25.96C93.6863 26.536 93.0543 26.984 92.3023 27.304C91.5663 27.64 90.7423 27.808 89.8303 27.808H88.3183C86.5263 27.808 85.1343 27.256 84.1423 26.152C83.1503 25.048 82.6543 23.536 82.6543 21.616V17.32H85.0783V21.52C85.0783 22.08 85.1423 22.584 85.2703 23.032C85.3983 23.48 85.5983 23.864 85.8703 24.184C86.1583 24.504 86.5263 24.752 86.9743 24.928C87.4383 25.104 87.9983 25.192 88.6543 25.192H89.7103C90.3823 25.192 90.9503 25.088 91.4143 24.88C91.8943 24.688 92.2783 24.416 92.5663 24.064C92.8703 23.728 93.0863 23.328 93.2143 22.864C93.3423 22.416 93.4063 21.936 93.4063 21.424V7.12H95.8303V21.4ZM102.962 22C102.514 22 102.082 21.944 101.666 21.832C101.266 21.704 100.914 21.496 100.61 21.208C100.306 20.92 100.066 20.544 99.89 20.08C99.714 19.6 99.626 19.008 99.626 18.304V7.12H102.074V17.704C102.074 18.216 102.186 18.624 102.41 18.928C102.65 19.216 103.002 19.36 103.466 19.36H104.018C104.37 19.36 104.546 19.784 104.546 20.632C104.546 21.544 104.37 22 104.018 22H102.962ZM111.628 20.656C111.196 20.912 110.772 21.128 110.356 21.304C109.94 21.464 109.5 21.6 109.036 21.712C108.572 21.808 108.06 21.88 107.5 21.928C106.956 21.976 106.324 22 105.604 22H104.74C104.532 22 104.396 21.896 104.332 21.688C104.252 21.464 104.212 21.144 104.212 20.728C104.212 20.264 104.252 19.92 104.332 19.696C104.396 19.472 104.532 19.36 104.74 19.36H105.7C106.292 19.36 106.828 19.352 107.308 19.336C107.788 19.304 108.22 19.256 108.604 19.192C109.004 19.128 109.38 19.04 109.732 18.928C110.084 18.8 110.436 18.632 110.788 18.424L113.836 16.672C113.724 16.464 113.612 16.28 113.5 16.12C113.404 15.96 113.276 15.832 113.116 15.736C112.972 15.624 112.788 15.544 112.564 15.496C112.34 15.432 112.052 15.4 111.7 15.4H106.612L106.756 12.76H112.084C112.532 12.76 112.972 12.824 113.404 12.952C113.852 13.08 114.268 13.328 114.652 13.696C115.052 14.048 115.412 14.552 115.732 15.208C116.068 15.848 116.348 16.696 116.572 17.752L111.628 20.656ZM122.887 21.616C122.887 22.48 122.735 23.288 122.431 24.04C122.143 24.792 121.735 25.448 121.207 26.008C120.695 26.568 120.079 27.008 119.359 27.328C118.655 27.648 117.895 27.808 117.079 27.808H115.567L115.447 25.192H116.455C117.175 25.192 117.791 25.088 118.303 24.88C118.799 24.688 119.207 24.424 119.527 24.088C119.847 23.752 120.079 23.368 120.223 22.936C120.367 22.504 120.439 22.064 120.439 21.616V14.968H122.887V21.616ZM134.627 16C135.059 16.496 135.371 16.992 135.563 17.488C135.771 17.968 135.875 18.44 135.875 18.904C135.875 19.336 135.795 19.744 135.635 20.128C135.491 20.496 135.267 20.824 134.963 21.112C134.659 21.384 134.275 21.6 133.811 21.76C133.363 21.92 132.843 22 132.251 22H125.843L125.723 19.36H131.843C132.627 19.36 133.019 19.064 133.019 18.472C133.019 18.184 132.883 17.888 132.611 17.584L128.531 12.928L130.427 11.152L134.627 16Z" fill="#28293D"/>
</svg>
