<svg width="147" height="37" viewBox="0 0 147 37" fill="none" xmlns="http://www.w3.org/2000/svg">
<path d="M28.7122 7.12H31.1602V22H28.7122V7.12ZM37.8675 21.616C37.8675 22.48 37.7235 23.288 37.4355 24.04C37.1475 24.792 36.7475 25.448 36.2355 26.008C35.7395 26.568 35.1395 27.008 34.4355 27.328C33.7475 27.648 32.9955 27.808 32.1795 27.808H30.6675L30.5475 25.192H31.5555C32.2755 25.192 32.8915 25.088 33.4035 24.88C33.8995 24.688 34.3075 24.424 34.6275 24.088C34.9475 23.752 35.1795 23.368 35.3235 22.936C35.4675 22.504 35.5395 22.064 35.5395 21.616V14.968H37.9875V17.824C37.9875 18.336 38.1395 18.72 38.4435 18.976C38.7635 19.232 39.1635 19.36 39.6435 19.36H39.9075C40.2595 19.36 40.4355 19.784 40.4355 20.632C40.4355 21.544 40.2595 22 39.9075 22H39.6435C39.3235 22 39.0035 21.952 38.6835 21.856C38.3635 21.744 38.0915 21.528 37.8675 21.208V21.616ZM47.5042 20.656C47.0722 20.912 46.6482 21.128 46.2322 21.304C45.8162 21.464 45.3762 21.6 44.9122 21.712C44.4482 21.808 43.9362 21.88 43.3762 21.928C42.8322 21.976 42.2002 22 41.4802 22H40.6162C40.4082 22 40.2722 21.896 40.2082 21.688C40.1282 21.464 40.0882 21.144 40.0882 20.728C40.0882 20.264 40.1282 19.92 40.2082 19.696C40.2722 19.472 40.4082 19.36 40.6162 19.36H41.5762C42.1682 19.36 42.7042 19.352 43.1842 19.336C43.6642 19.304 44.0962 19.256 44.4802 19.192C44.8802 19.128 45.2562 19.04 45.6082 18.928C45.9602 18.8 46.3122 18.632 46.6642 18.424L49.7122 16.672C49.6002 16.464 49.4882 16.28 49.3762 16.12C49.2802 15.96 49.1522 15.832 48.9922 15.736C48.8482 15.624 48.6642 15.544 48.4402 15.496C48.2162 15.432 47.9282 15.4 47.5762 15.4H42.4882L42.6322 12.76H47.9602C48.4082 12.76 48.8482 12.824 49.2802 12.952C49.7282 13.08 50.1442 13.328 50.5282 13.696C50.9282 14.048 51.2882 14.552 51.6082 15.208C51.9442 15.848 52.2242 16.696 52.4482 17.752L47.5042 20.656ZM47.8642 27.136H45.1522V24.688H47.8642V27.136ZM55.7394 7.12H58.1874V22H55.7394V7.12ZM78.8302 21.4C78.8302 22.312 78.6862 23.152 78.3982 23.92C78.1262 24.704 77.7262 25.384 77.1982 25.96C76.6862 26.536 76.0542 26.984 75.3022 27.304C74.5662 27.64 73.7422 27.808 72.8302 27.808H71.3182C69.5262 27.808 68.1342 27.256 67.1422 26.152C66.1502 25.048 65.6542 23.536 65.6542 21.616V17.32H68.0782V21.52C68.0782 22.08 68.1422 22.584 68.2702 23.032C68.3982 23.48 68.5982 23.864 68.8702 24.184C69.1582 24.504 69.5262 24.752 69.9742 24.928C70.4382 25.104 70.9982 25.192 71.6542 25.192H72.7102C73.3822 25.192 73.9502 25.088 74.4142 24.88C74.8942 24.688 75.2782 24.416 75.5662 24.064C75.8702 23.728 76.0862 23.328 76.2142 22.864C76.3422 22.416 76.4062 21.936 76.4062 21.424V7.12H78.8302V21.4ZM85.962 22C85.514 22 85.082 21.944 84.666 21.832C84.266 21.704 83.914 21.496 83.61 21.208C83.306 20.92 83.066 20.544 82.89 20.08C82.714 19.6 82.626 19.008 82.626 18.304V7.12H85.074V17.704C85.074 18.216 85.186 18.624 85.41 18.928C85.65 19.216 86.002 19.36 86.466 19.36H87.018C87.37 19.36 87.546 19.784 87.546 20.632C87.546 21.544 87.37 22 87.018 22H85.962ZM94.6277 20.656C94.1957 20.912 93.7717 21.128 93.3557 21.304C92.9397 21.464 92.4997 21.6 92.0357 21.712C91.5717 21.808 91.0597 21.88 90.4997 21.928C89.9557 21.976 89.3237 22 88.6037 22H87.7397C87.5317 22 87.3957 21.896 87.3317 21.688C87.2517 21.464 87.2117 21.144 87.2117 20.728C87.2117 20.264 87.2517 19.92 87.3317 19.696C87.3957 19.472 87.5317 19.36 87.7397 19.36H88.6997C89.2917 19.36 89.8277 19.352 90.3077 19.336C90.7877 19.304 91.2197 19.256 91.6037 19.192C92.0037 19.128 92.3797 19.04 92.7317 18.928C93.0837 18.8 93.4357 18.632 93.7877 18.424L96.8357 16.672C96.7237 16.464 96.6117 16.28 96.4997 16.12C96.4037 15.96 96.2757 15.832 96.1157 15.736C95.9717 15.624 95.7877 15.544 95.5637 15.496C95.3397 15.432 95.0517 15.4 94.6997 15.4H89.6117L89.7557 12.76H95.0837C95.5317 12.76 95.9717 12.824 96.4037 12.952C96.8517 13.08 97.2677 13.328 97.6517 13.696C98.0517 14.048 98.4117 14.552 98.7317 15.208C99.0677 15.848 99.3477 16.696 99.5717 17.752L94.6277 20.656ZM105.887 21.616C105.887 22.48 105.735 23.288 105.431 24.04C105.143 24.792 104.735 25.448 104.207 26.008C103.695 26.568 103.079 27.008 102.359 27.328C101.655 27.648 100.895 27.808 100.079 27.808H98.5669L98.4469 25.192H99.4549C100.175 25.192 100.791 25.088 101.303 24.88C101.799 24.688 102.207 24.424 102.527 24.088C102.847 23.752 103.079 23.368 103.223 22.936C103.367 22.504 103.439 22.064 103.439 21.616V14.968H105.887V21.616ZM117.627 16C118.059 16.496 118.371 16.992 118.563 17.488C118.771 17.968 118.875 18.44 118.875 18.904C118.875 19.336 118.795 19.744 118.635 20.128C118.491 20.496 118.267 20.824 117.963 21.112C117.659 21.384 117.275 21.6 116.811 21.76C116.363 21.92 115.843 22 115.251 22H108.843L108.723 19.36H114.843C115.627 19.36 116.019 19.064 116.019 18.472C116.019 18.184 115.883 17.888 115.611 17.584L111.531 12.928L113.427 11.152L117.627 16Z" fill="#28293D"/>
</svg>
