<svg width="139" height="37" viewBox="0 0 139 37" fill="none" xmlns="http://www.w3.org/2000/svg">
<path d="M84.5551 36.457C85.853 36.457 87.0648 36.2101 88.1905 35.7162C89.3276 35.2337 90.3269 34.5618 91.1884 33.7003C92.1418 32.724 92.808 31.6558 93.187 30.4957C93.5776 29.347 93.7728 28.2329 93.7728 27.1532L93.7556 26.4295C94.663 26.7052 95.3866 26.8603 96.2366 26.9292V21.8637H96.3917C95.7599 21.8408 95.2029 21.5881 94.7204 21.1056C94.238 20.6232 93.9968 20.0374 93.9968 19.3482H93.9623V15.4544C93.8705 15.1557 93.6809 14.972 93.3938 14.903H91.757C90.9989 14.903 90.4131 15.0294 89.9996 15.2821C89.5976 15.5233 89.3104 15.8564 89.1381 16.2814C88.9658 16.6949 88.8739 17.1658 88.8624 17.6942C88.8624 19.2104 88.851 20.7496 88.828 22.3117C88.805 23.8738 88.7935 25.4532 88.7935 27.0498C88.7935 28.2214 88.3743 29.2264 87.5358 30.0649C86.6973 30.9149 85.6922 31.3399 84.5206 31.3399H79.0761V33.5453C79.0761 34.3493 79.3576 35.0327 79.9204 35.5956C80.4947 36.1699 81.1839 36.457 81.9879 36.457H84.5551Z" fill="#28293D"/>
<path d="M102.835 21.8637V26.9292H96.2366V21.8637H102.835Z" fill="#28293D"/>
<path d="M109.245 21.8637V26.9292H102.835V21.8637H109.245Z" fill="#28293D"/>
<path d="M119.272 21.8637C119.801 21.7948 120.289 21.6225 120.737 21.3468C121.185 21.0597 121.558 20.6634 121.857 20.158C122.086 19.7675 122.224 19.354 122.27 18.9175C122.316 18.4695 122.282 18.0388 122.167 17.6253C122.052 17.2003 121.857 16.8098 121.581 16.4537C121.317 16.0861 120.984 15.7817 120.582 15.5405C120.18 15.3108 119.755 15.173 119.307 15.127C118.859 15.0696 118.422 15.0983 117.997 15.2132C117.584 15.3166 117.193 15.5061 116.826 15.7817C116.47 16.0459 116.171 16.3848 115.93 16.7983C115.689 17.2003 115.539 17.6253 115.482 18.0733C115.436 18.5212 115.47 18.9577 115.585 19.3827C115.7 19.7962 115.89 20.1867 116.154 20.5543C116.418 20.9104 116.751 21.2033 117.153 21.433C117.601 21.6857 118.043 21.8293 118.48 21.8637H119.272ZM109.245 21.8637H111.243C110.83 20.8874 110.6 19.8823 110.554 18.8486C110.52 17.8148 110.658 16.8213 110.968 15.8679C111.278 14.903 111.755 14.0129 112.398 13.1973C113.041 12.3818 113.839 11.6984 114.793 11.147C115.792 10.5612 116.849 10.2052 117.963 10.0788C119.077 9.95247 120.157 10.0329 121.202 10.32C122.259 10.5957 123.235 11.0724 124.131 11.7501C125.038 12.4163 125.785 13.2548 126.371 14.2656C126.773 14.9662 127.066 15.6899 127.25 16.4365C127.433 17.1716 127.514 17.9182 127.491 18.6763C127.525 19.1128 127.64 19.5263 127.835 19.9168C128.031 20.2959 128.278 20.629 128.576 20.9161C128.875 21.2033 129.219 21.433 129.61 21.6053C130.012 21.7776 130.437 21.8637 130.885 21.8637V26.9292C129.736 26.9292 128.662 26.7052 127.663 26.2572C126.664 25.8093 125.785 25.2177 125.027 24.4826C124.51 24.9995 123.924 25.4474 123.27 25.8265C122.5 26.263 121.696 26.5788 120.857 26.7741C120.019 26.9579 119.186 27.0096 118.359 26.9292H109.245V21.8637ZM119.255 0.499268C119.669 0.499268 120.053 0.579671 120.409 0.740479C120.766 0.901287 121.076 1.11953 121.34 1.3952C121.616 1.65938 121.828 1.97525 121.977 2.34281C122.138 2.71037 122.219 3.10091 122.219 3.51441C122.219 3.92792 122.138 4.31845 121.977 4.68601C121.828 5.04209 121.616 5.35796 121.34 5.63363C121.076 5.89781 120.766 6.11031 120.409 6.27112C120.053 6.42044 119.669 6.4951 119.255 6.4951C118.842 6.4951 118.451 6.42044 118.084 6.27112C117.727 6.11031 117.412 5.89781 117.136 5.63363C116.872 5.35796 116.659 5.04209 116.498 4.68601C116.349 4.31845 116.274 3.92792 116.274 3.51441C116.274 3.10091 116.349 2.71037 116.498 2.34281C116.659 1.97525 116.872 1.65938 117.136 1.3952C117.412 1.11953 117.727 0.901287 118.084 0.740479C118.451 0.579671 118.842 0.499268 119.255 0.499268Z" fill="#28293D"/>
<path d="M133.659 28.3592C134.072 28.3592 134.457 28.4396 134.813 28.6004C135.169 28.7612 135.479 28.9737 135.744 29.2379C136.019 29.5136 136.232 29.8352 136.381 30.2028C136.542 30.5703 136.622 30.9609 136.622 31.3744C136.622 31.7879 136.542 32.1727 136.381 32.5287C136.232 32.8963 136.019 33.2122 135.744 33.4763C135.479 33.752 135.169 33.9645 134.813 34.1138C134.457 34.2746 134.072 34.355 133.659 34.355C133.245 34.355 132.855 34.2746 132.487 34.1138C132.131 33.9645 131.815 33.752 131.54 33.4763C131.275 33.2122 131.063 32.8963 130.902 32.5287C130.753 32.1727 130.678 31.7879 130.678 31.3744C130.678 30.9609 130.753 30.5703 130.902 30.2028C131.063 29.8352 131.275 29.5136 131.54 29.2379C131.815 28.9737 132.131 28.7612 132.487 28.6004C132.855 28.4396 133.245 28.3592 133.659 28.3592ZM130.627 26.9809C132.326 26.9809 133.906 26.464 135.365 25.4302C136.846 24.316 137.823 23.0928 138.294 21.7604C138.684 20.8414 138.902 19.6928 138.948 18.3145C138.983 17.3956 139 16.1493 139 14.5757C138.288 14.5068 137.662 14.4723 137.122 14.4723C136.364 14.4723 135.778 14.5412 135.365 14.6791C134.629 14.9318 134.187 15.3108 134.038 15.8162C133.9 16.3101 133.831 16.8213 133.831 17.3496L133.848 17.9527C133.848 18.3547 133.825 18.7567 133.779 19.1587C133.699 19.8479 133.4 20.4509 132.884 20.9678C132.665 21.209 132.298 21.4272 131.781 21.6225C131.436 21.7489 131.052 21.835 130.627 21.881V26.9809Z" fill="currentColor"/>
<path d="M8.39072 21.6006C8.39072 21.3135 8.44241 21.0378 8.54578 20.7736C8.66065 20.5094 8.81571 20.2854 9.01098 20.1017C9.20624 19.9064 9.43023 19.7513 9.68292 19.6365C9.93562 19.5216 10.2113 19.4642 10.5099 19.4642C10.8086 19.4642 11.0842 19.5216 11.3369 19.6365C11.6011 19.7513 11.8309 19.9064 12.0261 20.1017C12.2214 20.2854 12.3707 20.5094 12.4741 20.7736C12.589 21.0378 12.6464 21.3135 12.6464 21.6006C12.6464 21.8993 12.589 22.1807 12.4741 22.4449C12.3707 22.6975 12.2214 22.9215 12.0261 23.1168C11.8309 23.3121 11.6011 23.4671 11.3369 23.582C11.0842 23.6854 10.8086 23.7371 10.5099 23.7371C10.2113 23.7371 9.93562 23.6854 9.68292 23.582C9.43023 23.4671 9.20624 23.3121 9.01098 23.1168C8.81571 22.9215 8.66065 22.6975 8.54578 22.4449C8.44241 22.1807 8.39072 21.8993 8.39072 21.6006ZM21.0371 27.4241C20.9797 28.4924 20.7327 29.5032 20.2962 30.4565C19.8598 31.4099 19.2797 32.2426 18.5561 32.9548C17.8324 33.6784 16.9882 34.2585 16.0233 34.695C15.07 35.1314 14.0534 35.3726 12.9737 35.4186H12.6292H12.543H8.4941H8.44241C7.30527 35.4186 6.2313 35.2061 5.22051 34.7811C4.2212 34.3676 3.3425 33.7933 2.58441 33.0582C1.82632 32.3345 1.21754 31.4788 0.758094 30.491C0.310129 29.5032 0.0631745 28.4407 0.0172294 27.3035V27.2002C0.00574313 27.1657 0 27.1255 0 27.0796C0 27.0336 0 26.9877 0 26.9417L0.0172294 26.8383L0 20.4118H5.08267V27.1312C5.10565 27.5677 5.20902 27.9812 5.3928 28.3718C5.57658 28.7738 5.8178 29.1241 6.11644 29.4228C6.42657 29.7214 6.78264 29.9569 7.18466 30.1292C7.59817 30.3015 8.03465 30.3876 8.4941 30.3876H12.6292C13.0886 30.3761 13.5136 30.2785 13.9041 30.0947C14.3061 29.9224 14.6565 29.6869 14.9551 29.3883C15.2538 29.0897 15.4892 28.7393 15.6615 28.3373C15.8453 27.9468 15.9429 27.5218 15.9544 27.0623V26.8383V17.0004H21.0371V26.8383V26.9417V27.1312V27.4241Z" fill="#28293D"/>
<path d="M31.0129 26.9762L31.3403 26.959V21.8763L31.2541 21.8935C30.3467 21.8935 29.5599 21.5834 28.8937 20.9631C28.239 20.3314 27.9001 19.5503 27.8772 18.6199V1.4939H26.9468C25.8211 1.4939 24.8563 1.89592 24.0522 2.69995C23.2597 3.49251 22.8634 4.45161 22.8634 5.57726V18.6199C22.8749 19.7685 23.0989 20.8483 23.5354 21.8591C23.9833 22.8584 24.5864 23.7313 25.3445 24.4779C26.114 25.2245 27.0042 25.8161 28.015 26.2525C28.9569 26.6661 29.9562 26.8843 31.0129 26.9073V26.9762Z" fill="#28293D"/>
<path d="M37.3533 21.8763V26.9417H30.7545V21.8763H37.3533Z" fill="#28293D"/>
<path d="M43.7627 21.8763V26.9417H37.1638V21.8763H43.7627Z" fill="#28293D"/>
<path d="M50.172 21.8763V26.9417H43.5732V21.8763H50.172Z" fill="#28293D"/>
<path d="M56.5814 21.8763V26.9417H49.9825V21.8763H56.5814Z" fill="#28293D"/>
<path d="M56.3918 21.8246H56.5469C57.0064 21.8246 57.4428 21.7384 57.8563 21.5662C58.2698 21.3824 58.6317 21.1412 58.9418 20.8425C59.2519 20.5324 59.4931 20.1763 59.6654 19.7743C59.8492 19.3608 59.9411 18.9243 59.9411 18.4649H59.8894C59.8894 17.2933 60.1076 16.1906 60.5441 15.1568C60.9921 14.123 61.6009 13.2271 62.3704 12.469C63.14 11.6994 64.0359 11.0907 65.0582 10.6427C66.092 10.1947 67.1947 9.97076 68.3663 9.97076H68.5041H68.6419C69.8135 9.97076 70.9162 10.1947 71.95 10.6427C72.9837 11.0907 73.8854 11.6994 74.655 12.469C75.4246 13.2271 76.0334 14.123 76.4813 15.1568C76.9293 16.1906 77.1533 17.2933 77.1533 18.4649C77.1533 19.625 76.9293 20.7162 76.4813 21.7384C76.0334 22.7607 75.4246 23.6567 74.655 24.4262C73.8854 25.1958 72.9837 25.8046 71.95 26.2525C70.9162 26.7005 69.8135 26.9245 68.6419 26.9245H68.5041V21.8246H68.6419C69.1129 21.8246 69.5551 21.7384 69.9686 21.5662C70.3936 21.3824 70.7612 21.1412 71.0713 20.8425C71.3814 20.5324 71.6284 20.1763 71.8121 19.7743C71.9959 19.3608 72.0878 18.9243 72.0878 18.4649C72.0878 17.9824 71.9959 17.5345 71.8121 17.121C71.6284 16.7075 71.3814 16.3456 71.0713 16.0355C70.7612 15.7254 70.3936 15.4842 69.9686 15.3119C69.5551 15.1281 69.1129 15.0362 68.6419 15.0362H68.5041H68.3663C67.8953 15.0362 67.4531 15.1281 67.0396 15.3119C66.6261 15.4842 66.2643 15.7254 65.9542 16.0355C65.644 16.3456 65.3971 16.7075 65.2133 17.121C65.0295 17.5345 64.9376 17.9824 64.9376 18.4649H65.0065C65.0065 19.625 64.7826 20.7162 64.3346 21.7384C63.8866 22.7607 63.2779 23.6567 62.5083 24.4262C61.7502 25.1958 60.8543 25.8046 59.8205 26.2525C58.7982 26.7005 57.707 26.9245 56.5469 26.9245H56.3918V21.8246Z" fill="#28293D"/>
</svg>
